<svg xmlns="http://www.w3.org/2000/svg" width="53.977" height="68" viewBox="0 0 53.977 68">
  <g id="Grupo_2845" data-name="Grupo 2845" transform="translate(-870.7 -427.5)">
    <path id="Trazado_1266" data-name="Trazado 1266" d="M882.957,495.575V444.53a4.779,4.779,0,0,1,4.774-4.773h37.021a4.779,4.779,0,0,1,4.774,4.773v39.149h-8.191a8.487,8.487,0,0,0-8.478,8.478v8.191H887.731A4.779,4.779,0,0,1,882.957,495.575Z" transform="translate(-8.553 -8.553)" fill="#403f55"/>
    <path id="Trazado_1267" data-name="Trazado 1267" d="M994.144,607.69v-5.572a4.779,4.779,0,0,1,4.773-4.774h5.572Z" transform="translate(-86.137 -118.513)" fill="#fed36c"/>
    <g id="Grupo_2844" data-name="Grupo 2844" transform="translate(877.579 445.095)">
      <path id="Trazado_1268" data-name="Trazado 1268" d="M910.622,524.2a13.567,13.567,0,0,0,4.092-.66v4.686a17.856,17.856,0,0,1-5.082.792c-6.138,0-10.626-2.64-10.626-11.616V499.976h-5.544v-4.62h5.544V485.72h5.28v9.636h10.428v4.62H904.286v17.093C904.286,521.953,906.332,524.2,910.622,524.2Z" transform="translate(-893.462 -485.72)" fill="#fed36c"/>
    </g>
    <path id="Trazado_1269" data-name="Trazado 1269" d="M924.677,435.978A8.488,8.488,0,0,0,916.2,427.5H879.178a8.487,8.487,0,0,0-8.478,8.478v51.045a8.487,8.487,0,0,0,8.478,8.478h27.009c.05,0,.1,0,.149-.008.03,0,.06-.009.09-.013s.06-.008.089-.013.061-.015.091-.023.057-.013.084-.021.054-.019.082-.029.059-.02.089-.032.048-.023.072-.034.062-.028.092-.044.045-.027.067-.04.06-.034.089-.053.048-.035.072-.053.051-.036.075-.055a1.819,1.819,0,0,0,.137-.124l16.669-16.669a1.85,1.85,0,0,0,.16-.187l.037-.05a1.845,1.845,0,0,0,.128-.2l.007-.014a1.853,1.853,0,0,0,.091-.206l.021-.059a1.8,1.8,0,0,0,.063-.229v-.007a1.807,1.807,0,0,0,.028-.23c0-.021,0-.042,0-.064s0-.041,0-.062ZM874.4,487.022V435.978a4.779,4.779,0,0,1,4.774-4.773H916.2a4.779,4.779,0,0,1,4.774,4.773v39.149h-8.191A8.487,8.487,0,0,0,904.3,483.6V491.8H879.178A4.779,4.779,0,0,1,874.4,487.022Zm33.6,2.154V483.6a4.779,4.779,0,0,1,4.774-4.774h5.572Z" fill="#1c232d"/>
    <path id="Trazado_1270" data-name="Trazado 1270" d="M994.144,607.69v-5.572a4.779,4.779,0,0,1,4.773-4.774h5.572Z" transform="translate(-86.137 -118.513)" fill="#fed36c"/>
  </g>
</svg>
